<?xml version="1.0" encoding="UTF-8"?>
<svg version="1.1" xmlns="http://www.w3.org/2000/svg" width="512" height="512">
<path d="M0,0 L10,1 L18,6 L25,17 L41,45 L54,68 L57,77 L57,92 L54,120 L54,124 L82,139 L105,152 L133,167 L142,172 L143,153 L148,143 L156,138 L164,137 L172,139 L180,146 L183,154 L184,195 L207,208 L227,219 L229,221 L229,259 L226,262 L208,260 L43,237 L41,236 L39,258 L30,342 L31,345 L41,353 L54,364 L65,373 L82,387 L95,398 L96,399 L96,429 L92,432 L76,428 L23,412 L19,412 L10,429 L7,431 L-1,431 L-6,426 L-13,411 L-66,427 L-85,432 L-89,429 L-89,399 L-77,388 L-66,379 L-53,368 L-43,360 L-30,349 L-23,343 L-35,237 L-87,244 L-216,262 L-222,261 L-223,259 L-223,221 L-218,217 L-190,202 L-178,195 L-176,195 L-176,151 L-172,144 L-166,139 L-155,137 L-146,140 L-141,144 L-137,152 L-136,172 L-108,157 L-90,147 L-61,131 L-48,124 L-51,95 L-51,75 L-46,63 L-32,39 L-16,11 L-10,4 L-4,1 Z " fill="#010101" transform="translate(253,40)"/>
<path d="M0,0 L8,1 L14,8 L28,33 L42,57 L47,68 L47,81 L33,210 L29,247 L14,386 L11,395 L4,409 L2,409 L-6,391 L-9,370 L-14,323 L-41,84 L-41,66 L-32,49 L-18,25 L-6,4 Z " fill="#3164B0" transform="translate(253,50)"/>
<path d="M0,0 L2,0 L8,50 L9,59 L9,68 L8,69 L-65,80 L-148,93 L-166,95 L-166,91 L-142,78 L-119,65 L-91,50 L-68,37 L-40,22 L-17,9 Z " fill="#5381C8" transform="translate(206,175)"/>
<path d="M0,0 L6,2 L32,16 L55,29 L83,44 L106,57 L134,72 L157,85 L168,91 L168,95 L158,94 L85,83 L15,72 L-6,69 L-7,68 L-6,53 L-2,19 Z " fill="#5380C8" transform="translate(304,175)"/>
<path d="M0,0 L13,1 L85,12 L155,23 L176,26 L176,38 L152,35 L79,25 L0,14 L-2,13 L-1,2 Z " fill="#F9D180" transform="translate(296,253)"/>
<path d="M0,0 L8,0 L9,13 L-1,15 L-60,23 L-103,29 L-153,36 L-169,38 L-169,26 L-83,13 Z " fill="#F9D180" transform="translate(209,253)"/>
<path d="M0,0 L8,0 L18,3 L24,7 L31,15 L34,22 L34,36 L31,41 L26,44 L-16,44 L-22,40 L-25,34 L-25,25 L-21,15 L-16,8 L-9,3 Z " fill="#010103" transform="translate(251,98)"/>
<path d="M0,0 L4,2 L17,13 L27,21 L40,32 L51,41 L59,47 L58,49 L10,32 L-3,27 Z " fill="#527FC6" transform="translate(280,396)"/>
<path d="M0,0 L2,0 L4,17 L4,26 L-52,47 L-57,48 L-52,43 L-39,32 L-28,23 L-15,12 L-4,3 Z " fill="#527FC6" transform="translate(231,396)"/>
<path d="M0,0 L9,0 L16,3 L21,8 L25,16 L25,23 L23,25 L-13,25 L-15,23 L-15,15 L-11,7 L-5,2 Z " fill="#ABC5EE" transform="translate(251,108)"/>
<path d="M0,0 L6,1 L11,6 L12,8 L12,43 L7,41 L-8,33 L-8,7 L-4,2 Z " fill="#EF9D00" transform="translate(414,187)"/>
<path d="M0,0 L9,0 L14,6 L14,32 L-4,42 L-5,42 L-5,5 Z " fill="#F39F00" transform="translate(92,188)"/>
<path d="M0,0 L2,0 L2,10 L-23,18 L-61,29 L-61,23 Z " fill="#F8D07F" transform="translate(235,431)"/>
<path d="M0,0 L9,2 L57,19 L63,22 L63,27 L51,24 L1,9 L0,8 Z " fill="#F5CE7E" transform="translate(276,433)"/>
<path d="M0,0 L5,0 L7,2 L7,36 L4,38 L-1,37 L-3,34 L-3,3 Z " fill="#010306" transform="translate(255,359)"/>
<path d="M0,0 Z M-1,1 Z M-3,2 L-1,3 L-3,5 L-2,7 L-10,9 L-5,4 Z " fill="#4971B1" transform="translate(184,435)"/>
</svg>
