<svg width="24" height="34" viewBox="0 0 24 34" fill="none" xmlns="http://www.w3.org/2000/svg">
<path fill-rule="evenodd" clip-rule="evenodd" d="M22.0033 11.9955H15.8956L19.8421 2.78696C19.9724 2.48288 20.0253 2.15121 19.9959 1.82168C19.9665 1.49215 19.8558 1.17506 19.6737 0.898847C19.4916 0.622633 19.2438 0.395925 18.9525 0.23905C18.6613 0.082175 18.3356 3.73277e-05 18.0048 7.91069e-07H8.00852C7.61698 -0.000347438 7.23396 0.114279 6.90698 0.329657C6.58001 0.545035 6.32347 0.851682 6.1692 1.21155L0.17145 15.2063C0.0410332 15.5105 -0.0118051 15.8424 0.0176771 16.1721C0.0471593 16.5018 0.158039 16.819 0.340366 17.0952C0.522693 17.3715 0.770762 17.5982 1.06231 17.7549C1.35385 17.9117 1.67975 17.9936 2.01076 17.9933H5.47746L0.155456 31.2423C-0.644244 33.2316 1.82483 34.9129 3.38225 33.4415L13.4265 23.961L23.3028 15.5142C24.7143 14.3066 23.8626 11.9955 22.0033 11.9955ZM11.0274 13.2071C10.8971 13.511 10.8442 13.8425 10.8735 14.1718C10.9028 14.5012 11.0133 14.8182 11.1952 15.0943C11.3771 15.3705 11.6246 15.5972 11.9156 15.7543C12.2066 15.9113 12.532 15.9936 12.8627 15.994H16.5893L10.7515 20.9881L7.2568 24.2869L10.2897 16.7397C10.4116 16.4365 10.4573 16.1079 10.4228 15.7829C10.3882 15.4578 10.2745 15.1462 10.0916 14.8753C9.90874 14.6044 9.6622 14.3825 9.37362 14.229C9.08504 14.0754 8.76322 13.995 8.43635 13.9948H5.04363L9.32602 3.9985H14.9719L11.0274 13.2071Z" fill="#0099FF"/>
</svg>
