<?xml version="1.0" encoding="UTF-8"?>
<svg version="1.1" xmlns="http://www.w3.org/2000/svg" width="512" height="512">
<path d="M0,0 L8,0 L14,3 L19,9 L20,11 L20,86 L116,86 L116,11 L120,5 L125,1 L128,0 L136,0 L142,3 L147,9 L148,11 L148,86 L162,86 L172,90 L180,96 L186,103 L190,112 L191,116 L191,281 L188,293 L181,307 L170,319 L157,327 L145,331 L138,332 L-2,332 L-16,329 L-30,322 L-42,311 L-49,300 L-54,287 L-55,281 L-55,116 L-51,105 L-45,97 L-38,91 L-30,87 L-26,86 L-12,86 L-12,11 L-8,5 L-3,1 Z M64,140 L57,144 L53,150 L32,203 L31,212 L34,218 L40,223 L43,224 L66,224 L53,257 L53,267 L57,273 L63,277 L73,277 L79,273 L84,265 L104,215 L105,206 L101,198 L95,194 L92,193 L70,193 L83,161 L83,150 L79,144 L72,140 Z " fill="#000000" transform="translate(188,26)"/>
<path d="M0,0 L140,0 L140,11 L136,24 L130,32 L122,39 L112,43 L107,44 L86,44 L86,97 L82,103 L77,107 L73,108 L66,108 L60,105 L55,99 L54,97 L54,44 L33,44 L20,40 L12,34 L5,26 L1,16 L0,11 Z " fill="#000000" transform="translate(186,378)"/>
</svg>
